<?xml version="1.0" encoding="UTF-8"?>
<svg id="Layer_1" data-name="Layer 1" xmlns="http://www.w3.org/2000/svg" viewBox="0 0 1210.63 810.41">
  <defs>
    <style>
      .cls-1 {
        stroke-width: 22.54px;
      }

      .cls-1, .cls-2, .cls-3, .cls-4, .cls-5, .cls-6 {
        fill: none;
        stroke: #00221c;
        stroke-linecap: round;
        stroke-miterlimit: 10;
      }

      .cls-2 {
        stroke-width: 21.57px;
      }

      .cls-3 {
        stroke-width: 22.26px;
      }

      .cls-4 {
        stroke-width: 23.14px;
      }

      .cls-5 {
        stroke-width: 22.86px;
      }

      .cls-6 {
        stroke-width: 28.22px;
      }

      .cls-7 {
        fill: #00221c;
      }
    </style>
  </defs>
  <line class="cls-1" x1="258.08" y1="134.32" x2="258.08" y2="799.14"/>
  <line class="cls-5" x1="438.71" y1="11.43" x2="438.71" y2="695.39"/>
  <line class="cls-3" x1="619.33" y1="87.27" x2="619.33" y2="735.36"/>
  <line class="cls-4" x1="795.08" y1="204.37" x2="94.49" y2="204.37"/>
  <line class="cls-2" x1="619.33" y1="414.85" x2="10.78" y2="414.85"/>
  <line class="cls-6" x1="1195.92" y1="625.33" x2="154.2" y2="625.33"/>
  <g>
    <path class="cls-7" d="M745.86,364.27h-61.8c-3.84,0-5.76-1.86-5.76-5.59v-47.85c0-3.73,1.92-5.59,5.76-5.59h61.8c3.84,0,5.76,1.86,5.76,5.59v47.85c0,3.73-1.92,5.59-5.76,5.59ZM739.59,315.42h-49.26v38.65h49.26v-38.65Z"/>
    <path class="cls-7" d="M859.75,279.51v25.73h25.85v10.19h-25.85v48.84h-12.03v-48.84h-46.45v48.84h-12.03v-48.84h-15.61v-10.19h15.61v-30.33c0-3.73,2.05-5.59,6.14-5.59h34.17v10.19h-28.28v25.73h46.45v-30.33c0-3.73,1.92-5.59,6.14-5.59h34.04v10.19h-28.15Z"/>
    <path class="cls-7" d="M966.6,364.27c-4.09,0-6.14-1.86-6.14-5.59v-43.25h-15.61v-10.19h15.61v-19.51h12.03v19.51h23.16v10.19h-23.16v38.65h25.46v10.19h-31.35Z"/>
    <path class="cls-7" d="M1081.9,364.27v-48.22l-49.26,3.11v45.11h-12.03v-94.95h12.03v40.14l51.44-4.23c1.28-.12,3.2-.25,4.22-.25,3.58,0,5.63,1.86,5.63,4.97v54.31h-12.03Z"/>
    <path class="cls-7" d="M1189.9,364.27h-60.4c-4.09,0-6.14-1.86-6.14-5.59v-47.85c0-3.73,2.05-5.59,6.14-5.59h60.4c4.09,0,6.01,1.99,6.01,5.59v24.23l-3.97,3.73h-56.81v16.16h49.01v-7.71h11.77v11.43c0,3.73-1.92,5.59-6.01,5.59ZM1184.14,314.55h-49.01v15.41h49.01v-15.41Z"/>
  </g>
  <g>
    <path class="cls-7" d="M788.41,546.1h-116.54c-5.04,0-8.29-3.42-8.29-8.65v-120.33c0-5.22,3.24-8.65,8.47-8.65h116.36c5.22,0,8.47,3.42,8.47,8.65v33.86h-17.65v-26.3h-97.99v105.2h97.99v-40.53h-49.36v-15.49h67.01v63.59c0,5.22-3.24,8.65-8.47,8.65Z"/>
    <path class="cls-7" d="M954.13,546.1l-72.23-59.44v-11.71h69.35v-50.26h-91.33v121.41h-17.65v-137.62h118.35c5.04,0,8.29,3.42,8.29,8.65v64.85c0,5.22-3.24,8.47-8.29,8.47h-49.9l67.91,54.58v1.08h-24.5Z"/>
    <path class="cls-7" d="M1012.67,546.1v-137.62h17.65v137.62h-17.65Z"/>
    <path class="cls-7" d="M1167.4,546.1h-91.69v-137.62h91.69c29.9,0,43.23,13.33,43.23,43.23v51.16c0,29.9-13.33,43.23-43.23,43.23ZM1192.98,451.71c0-18.01-7.57-27.02-25.58-27.02h-74.03v105.2h74.03c18.01,0,25.58-9.01,25.58-27.02v-51.16Z"/>
  </g>
</svg>